<svg width="169" height="24" viewBox="0 0 169 24" fill="none" xmlns="http://www.w3.org/2000/svg">
<path d="M20.5197 5.13068V8.54914L10.2614 3.41846H3.41846V10.2584L13.6798 15.389V18.8105L0 11.9706V0H10.2614L20.5197 5.13068Z" fill="#465FFF"/>
<path d="M20.5197 11.9706V23.9412H10.2614L0 18.8105V15.3891L10.2614 20.5198H17.1013V13.6799L6.83991 8.54918V5.13072L20.5197 11.9706Z" fill="#465FFF"/>
<path d="M28.5352 18.9992V3.61773H31.5921V18.9992H28.5352Z" fill="#465FFF"/>
<path d="M44.8657 3.61773H47.8798V18.9992H45.402L37.6684 9.00233V18.9992H34.6543V3.61773H37.1428L44.8657 13.5932V3.61773Z" fill="#465FFF"/>
<path d="M61.8613 3.61773V13.8292C61.8613 15.4917 61.3357 16.8218 60.2845 17.8193C59.2333 18.8169 57.8282 19.3103 56.0691 19.3103C54.5567 19.3103 53.291 18.9349 52.272 18.184C51.253 17.4332 50.5236 16.4142 50.0838 15.127L52.8941 14.3118C53.1301 15.0305 53.5162 15.599 54.0418 16.028C54.5674 16.4571 55.2217 16.6716 56.0047 16.6716C56.8843 16.6716 57.5815 16.3927 58.0963 15.835C58.6112 15.2772 58.8686 14.5693 58.8686 13.7219V6.2564H51.6284V3.61773H61.8613Z" fill="#465FFF"/>
<path d="M74.9525 3.61773H77.9666V12.6922C77.9666 14.6873 77.3766 16.2855 76.2075 17.4975C75.0383 18.7096 73.4079 19.3103 71.3163 19.3103C69.2032 19.3103 67.5728 18.7096 66.4144 17.5083C65.2559 16.3069 64.6767 14.698 64.6767 12.6922V3.61773H67.7337V12.6493C67.7337 13.8184 68.0448 14.7623 68.6669 15.4703C69.289 16.1782 70.1793 16.5322 71.327 16.5322C72.4962 16.5322 73.3972 16.1782 74.0193 15.4703C74.6414 14.7623 74.9525 13.8184 74.9525 12.6493V3.61773Z" fill="#465FFF"/>
<path d="M90.6716 18.9992L87.1963 13.6254H83.9248V19.0099H80.9322V3.62846H88.4191C89.9959 3.62846 91.2723 4.1326 92.2377 5.15159C93.203 6.17059 93.6857 7.32903 93.6857 8.62691C93.6857 9.66735 93.3854 10.6113 92.7954 11.4694C92.2055 12.3275 91.3796 12.9389 90.3284 13.3143L94.1469 18.9992H90.6716ZM83.9248 6.33148L83.9141 10.9867H88.2153C88.9769 10.9867 89.5883 10.7614 90.0602 10.3109C90.5322 9.86043 90.7682 9.30266 90.7682 8.63763C90.7682 8.00478 90.5429 7.45774 90.0817 7.00724C89.6204 6.55673 89.0412 6.33148 88.3333 6.33148H83.9248Z" fill="#465FFF"/>
<path d="M105.533 3.61773H108.911L103.098 13.3572V18.9992H100.041V13.3572L94.195 3.61773H97.6059L101.575 10.4504L105.533 3.61773Z" fill="#465FFF"/>
<path d="M115.621 19.3103L115.567 19.3425C113.797 19.3425 112.285 18.892 111.04 17.9909C109.796 17.0899 108.938 15.9851 108.466 14.6765L111.351 13.8077C111.673 14.6551 112.22 15.3416 112.993 15.8779C113.765 16.4142 114.687 16.6823 115.749 16.6823C116.618 16.6823 117.326 16.4893 117.873 16.1031C118.42 15.717 118.688 15.2665 118.688 14.7409C118.688 14.3333 118.538 13.9793 118.227 13.679C117.916 13.3786 117.39 13.1105 116.65 12.8852L112.724 11.6517C111.652 11.3192 110.804 10.8151 110.172 10.15C109.539 9.48501 109.228 8.68054 109.238 7.7259C109.228 6.51383 109.753 5.47338 110.804 4.61528C111.856 3.75718 113.175 3.32812 114.752 3.32812C116.35 3.32812 117.744 3.70354 118.935 4.45438C120.126 5.20522 120.941 6.13841 121.381 7.26467L118.581 8.07987C118.259 7.44701 117.755 6.94288 117.079 6.55673C116.404 6.17059 115.642 5.97752 114.795 5.97752C114.065 5.97752 113.475 6.13841 113.014 6.4602C112.553 6.78199 112.328 7.17886 112.328 7.64009C112.328 8.31584 112.821 8.79853 113.797 9.08814L117.616 10.3217C118.956 10.7293 119.986 11.2441 120.694 11.8662C121.402 12.4884 121.756 13.3786 121.756 14.5371C121.756 15.8779 121.187 17.0041 120.05 17.9266C118.913 18.849 117.433 19.3103 115.621 19.3103Z" fill="#465FFF"/>
<path d="M132.766 3.61773H136.145L130.331 13.3572V18.9992H127.274V13.3572L121.429 3.61773H124.84L128.808 10.4504L132.766 3.61773Z" fill="#465FFF"/>
<path d="M148.089 3.61773H151.103V18.9992H148.625L140.891 9.00233V18.9992H137.877V3.61773H140.366L148.089 13.5932V3.61773Z" fill="#465FFF"/>
<path d="M161.63 19.3103L161.598 19.321C159.281 19.321 157.361 18.5594 155.827 17.0256C154.293 15.4917 153.532 13.5824 153.532 11.2977C153.532 9.0345 154.293 7.13595 155.827 5.61282C157.361 4.08969 159.27 3.32812 161.555 3.32812C163.497 3.32812 165.127 3.82153 166.436 4.80835C167.744 5.79517 168.602 6.96433 168.999 8.31584L166.049 9.0345C165.781 8.23003 165.245 7.54355 164.441 6.98579C163.636 6.42802 162.681 6.14914 161.566 6.14914C160.086 6.14914 158.884 6.64254 157.973 7.64009C157.061 8.63763 156.6 9.8497 156.6 11.2763C156.6 12.7136 157.061 13.9364 157.983 14.9554C158.906 15.9744 160.096 16.4785 161.566 16.4785C162.681 16.4785 163.647 16.1997 164.451 15.6526C165.256 15.1056 165.792 14.4298 166.06 13.6254L168.978 14.3762C168.602 15.717 167.755 16.8754 166.446 17.8515C165.138 18.8276 163.529 19.3103 161.63 19.3103Z" fill="#465FFF"/>
</svg>
